HIERARCHY
ROOT newVegas:Hips
{
	OFFSET 0.000000 96.479958 0.000000
	CHANNELS 6 Xposition Yposition Zposition Xrotation Yrotation Zrotation
	JOINT newVegas:Pelvis
	{
		OFFSET 0.000000 0.000000 0.000000
		CHANNELS 3 Xrotation Yrotation Zrotation
		JOINT newVegas:LeftUpLeg
		{
			OFFSET 18.735201 -5.666702 -4.541200
			CHANNELS 3 Xrotation Yrotation Zrotation
			JOINT newVegas:LeftLeg
			{
				OFFSET -0.021200 -31.938179 0.493100
				CHANNELS 3 Xrotation Yrotation Zrotation
				JOINT newVegas:LeftFoot
				{
					OFFSET 0.021200 -31.938179 -4.336299
					CHANNELS 3 Xrotation Yrotation Zrotation
					JOINT newVegas:LeftToeBase
					{
						OFFSET 0.943001 -26.722000 15.023500
						CHANNELS 3 Xrotation Yrotation Zrotation
						End Site
						{
							OFFSET 0.000000 30.670183 0.000000
						}
					}
				}
				JOINT newVegas:Left_PantLeg
				{
					OFFSET 0.663870 -9.044666 -1.108900
					CHANNELS 3 Xrotation Yrotation Zrotation
					End Site
					{
						OFFSET 1.415995 20.635357 0.000000
					}
				}
			}
		}
		JOINT newVegas:RightUpLeg
		{
			OFFSET -18.735201 -5.666702 -4.541200
			CHANNELS 3 Xrotation Yrotation Zrotation
			JOINT newVegas:RightLeg
			{
				OFFSET 0.018946 -31.938133 0.493100
				CHANNELS 3 Xrotation Yrotation Zrotation
				JOINT newVegas:RightFoot
				{
					OFFSET -0.018946 -31.938126 -4.336299
					CHANNELS 3 Xrotation Yrotation Zrotation
					JOINT newVegas:RightToeBase
					{
						OFFSET -0.943001 -26.722004 15.023500
						CHANNELS 3 Xrotation Yrotation Zrotation
						End Site
						{
							OFFSET 0.000000 30.670187 0.000000
						}
					}
				}
				JOINT newVegas:Right_PantLeg
				{
					OFFSET -0.661674 -9.044716 -1.108900
					CHANNELS 3 Xrotation Yrotation Zrotation
					End Site
					{
						OFFSET -1.415958 20.635269 0.000000
					}
				}
			}
		}
	}
	JOINT newVegas:Spine
	{
		OFFSET 0.000000 10.199997 -0.299500
		CHANNELS 3 Xrotation Yrotation Zrotation
		JOINT newVegas:Spine1
		{
			OFFSET 0.000000 11.900002 -1.516600
			CHANNELS 3 Xrotation Yrotation Zrotation
			JOINT newVegas:Spine2
			{
				OFFSET 0.000000 13.600006 -2.842500
				CHANNELS 3 Xrotation Yrotation Zrotation
				JOINT newVegas:Neck
				{
					OFFSET 0.000000 9.624100 -2.890100
					CHANNELS 3 Xrotation Yrotation Zrotation
					JOINT newVegas:Head
					{
						OFFSET 0.000000 14.068802 -1.351900
						CHANNELS 3 Xrotation Yrotation Zrotation
						JOINT newVegas:Hair_Back
						{
							OFFSET 0.000000 3.231903 -17.524799
							CHANNELS 3 Xrotation Yrotation Zrotation
							End Site
							{
								OFFSET 0.000000 19.849884 0.000000
							}
						}
						JOINT newVegas:Hair_Front
						{
							OFFSET 0.000000 31.260406 4.573800
							CHANNELS 3 Xrotation Yrotation Zrotation
							JOINT newVegas:Hair_Front1
							{
								OFFSET 0.000000 2.284103 11.993300
								CHANNELS 3 Xrotation Yrotation Zrotation
								JOINT newVegas:Hair_Front2
								{
									OFFSET 0.000000 2.284103 11.993300
									CHANNELS 3 Xrotation Yrotation Zrotation
									End Site
									{
										OFFSET 0.000000 12.208862 0.000000
									}
								}
							}
						}
						JOINT newVegas:Jowel
						{
							OFFSET 0.000000 -7.458206 6.864100
							CHANNELS 3 Xrotation Yrotation Zrotation
							End Site
							{
								OFFSET 0.000000 19.849884 0.000000
							}
						}
					}
				}
				JOINT newVegas:LeftShoulder
				{
					OFFSET 15.263000 10.923401 -0.547700
					CHANNELS 3 Xrotation Yrotation Zrotation
					JOINT newVegas:LeftArm
					{
						OFFSET 25.438599 -2.830597 -13.032500
						CHANNELS 3 Xrotation Yrotation Zrotation
						JOINT newVegas:LeftForeArm
						{
							OFFSET 29.960503 0.000000 0.000000
							CHANNELS 3 Xrotation Yrotation Zrotation
							JOINT newVegas:LeftHand
							{
								OFFSET 27.849251 0.000000 0.000000
								CHANNELS 3 Xrotation Yrotation Zrotation
								JOINT newVegas:LeftHandThumb1
								{
									OFFSET 4.487587 -3.305161 6.305391
									CHANNELS 3 Xrotation Yrotation Zrotation
									JOINT newVegas:LeftHandThumb2
									{
										OFFSET 5.480453 -3.164139 3.164143
										CHANNELS 3 Xrotation Yrotation Zrotation
										JOINT newVegas:LeftHandThumb3
										{
											OFFSET 5.159721 -2.978973 2.978967
											CHANNELS 3 Xrotation Yrotation Zrotation
											End Site
											{
												OFFSET 2.494507 5.926697 1.738678
											}
										}
									}
								}
								JOINT newVegas:LeftHandIndex1
								{
									OFFSET 18.578728 -0.527832 5.208049
									CHANNELS 3 Xrotation Yrotation Zrotation
									JOINT newVegas:LeftHandIndex2
									{
										OFFSET 3.192009 0.000000 0.000000
										CHANNELS 3 Xrotation Yrotation Zrotation
										JOINT newVegas:LeftHandIndex3
										{
											OFFSET 3.835129 0.000000 0.000000
											CHANNELS 3 Xrotation Yrotation Zrotation
											End Site
											{
												OFFSET -0.034599 3.816971 0.371180
											}
										}
									}
								}
								JOINT newVegas:LeftHandMiddle1
								{
									OFFSET 18.476105 0.000000 0.000000
									CHANNELS 3 Xrotation Yrotation Zrotation
									JOINT newVegas:LeftHandMiddle2
									{
										OFFSET 3.324875 0.000000 0.000000
										CHANNELS 3 Xrotation Yrotation Zrotation
										JOINT newVegas:LeftHandMiddle3
										{
											OFFSET 4.596550 0.000000 0.000000
											CHANNELS 3 Xrotation Yrotation Zrotation
											End Site
											{
												OFFSET 0.057701 4.578827 0.399218
											}
										}
									}
								}
								JOINT newVegas:LeftHandRing1
								{
									OFFSET 17.732719 0.121887 -4.201567
									CHANNELS 3 Xrotation Yrotation Zrotation
									JOINT newVegas:LeftHandRing2
									{
										OFFSET 2.733170 0.000000 0.000000
										CHANNELS 3 Xrotation Yrotation Zrotation
										JOINT newVegas:LeftHandRing3
										{
											OFFSET 3.178268 0.000000 0.000000
											CHANNELS 3 Xrotation Yrotation Zrotation
											End Site
											{
												OFFSET 0.119102 3.170624 0.185394
											}
										}
									}
								}
								JOINT newVegas:LeftHandPinky1
								{
									OFFSET 15.989624 -0.606689 -7.535461
									CHANNELS 3 Xrotation Yrotation Zrotation
									JOINT newVegas:LeftHandPinky2
									{
										OFFSET 2.538986 0.000000 0.000000
										CHANNELS 3 Xrotation Yrotation Zrotation
										JOINT newVegas:LeftHandPinky3
										{
											OFFSET 2.593102 0.000000 0.000000
											CHANNELS 3 Xrotation Yrotation Zrotation
											End Site
											{
												OFFSET -0.150902 2.584198 0.152708
											}
										}
									}
								}
							}
							JOINT newVegas:Left_Sleeve
							{
								OFFSET 0.267448 -0.649796 0.577675
								CHANNELS 3 Xrotation Yrotation Zrotation
								End Site
								{
									OFFSET 0.000000 15.991241 0.000000
								}
							}
							JOINT newVegas:Left_CapeC
							{
								OFFSET 15.715958 -8.608795 -6.935905
								CHANNELS 3 Xrotation Yrotation Zrotation
								JOINT newVegas:Left_CapeC1
								{
									OFFSET 0.000000 -8.688499 0.000000
									CHANNELS 3 Xrotation Yrotation Zrotation
									End Site
									{
										OFFSET 0.000000 8.688499 0.000000
									}
								}
							}
						}
						JOINT newVegas:Left_CapeB
						{
							OFFSET 26.118385 -8.608795 -7.079235
							CHANNELS 3 Xrotation Yrotation Zrotation
							JOINT newVegas:Left_CapeB1
							{
								OFFSET 0.000000 -8.688499 0.000000
								CHANNELS 3 Xrotation Yrotation Zrotation
								End Site
								{
									OFFSET 0.000000 8.688499 0.000000
								}
							}
						}
						JOINT newVegas:Left_CapeA
						{
							OFFSET 5.115639 -8.608795 -10.395809
							CHANNELS 3 Xrotation Yrotation Zrotation
							JOINT newVegas:Left_CapeA1
							{
								OFFSET 0.000000 -8.688499 0.000000
								CHANNELS 3 Xrotation Yrotation Zrotation
								End Site
								{
									OFFSET 0.000000 8.688499 0.000000
								}
							}
						}
					}
				}
				JOINT newVegas:RightShoulder
				{
					OFFSET -15.263000 10.923401 -0.547700
					CHANNELS 3 Xrotation Yrotation Zrotation
					JOINT newVegas:RightArm
					{
						OFFSET -25.438599 -2.830597 -13.032500
						CHANNELS 3 Xrotation Yrotation Zrotation
						JOINT newVegas:RightForeArm
						{
							OFFSET -29.960503 0.000000 0.000000
							CHANNELS 3 Xrotation Yrotation Zrotation
							JOINT newVegas:RightHand
							{
								OFFSET -27.849251 0.000000 0.000000
								CHANNELS 3 Xrotation Yrotation Zrotation
								JOINT newVegas:RightHandThumb1
								{
									OFFSET -4.487587 -3.305161 6.305391
									CHANNELS 3 Xrotation Yrotation Zrotation
									JOINT newVegas:RightHandThumb2
									{
										OFFSET -5.480453 -3.164139 3.164143
										CHANNELS 3 Xrotation Yrotation Zrotation
										JOINT newVegas:RightHandThumb3
										{
											OFFSET -5.159721 -2.978973 2.978967
											CHANNELS 3 Xrotation Yrotation Zrotation
											End Site
											{
												OFFSET -2.494507 5.926697 1.738678
											}
										}
									}
								}
								JOINT newVegas:RightHandIndex1
								{
									OFFSET -18.578728 -0.527832 5.208049
									CHANNELS 3 Xrotation Yrotation Zrotation
									JOINT newVegas:RightHandIndex2
									{
										OFFSET -3.192009 0.000000 0.000000
										CHANNELS 3 Xrotation Yrotation Zrotation
										JOINT newVegas:RightHandIndex3
										{
											OFFSET -3.835129 0.000000 0.000000
											CHANNELS 3 Xrotation Yrotation Zrotation
											End Site
											{
												OFFSET 0.034599 3.816971 0.371180
											}
										}
									}
								}
								JOINT newVegas:RightHandMiddle1
								{
									OFFSET -18.476105 0.000000 0.000000
									CHANNELS 3 Xrotation Yrotation Zrotation
									JOINT newVegas:RightHandMiddle2
									{
										OFFSET -3.324875 0.000000 0.000000
										CHANNELS 3 Xrotation Yrotation Zrotation
										JOINT newVegas:RightHandMiddle3
										{
											OFFSET -4.596550 0.000000 0.000000
											CHANNELS 3 Xrotation Yrotation Zrotation
											End Site
											{
												OFFSET -0.057701 4.578827 0.399218
											}
										}
									}
								}
								JOINT newVegas:RightHandRing1
								{
									OFFSET -17.732719 0.121887 -4.201567
									CHANNELS 3 Xrotation Yrotation Zrotation
									JOINT newVegas:RightHandRing2
									{
										OFFSET -2.733170 0.000000 0.000000
										CHANNELS 3 Xrotation Yrotation Zrotation
										JOINT newVegas:RightHandRing3
										{
											OFFSET -3.178268 0.000000 0.000000
											CHANNELS 3 Xrotation Yrotation Zrotation
											End Site
											{
												OFFSET -0.119102 3.170624 0.185394
											}
										}
									}
								}
								JOINT newVegas:RightHandPinky1
								{
									OFFSET -15.989624 -0.606689 -7.535461
									CHANNELS 3 Xrotation Yrotation Zrotation
									JOINT newVegas:RightHandPinky2
									{
										OFFSET -2.538986 0.000000 0.000000
										CHANNELS 3 Xrotation Yrotation Zrotation
										JOINT newVegas:RightHandPinky3
										{
											OFFSET -2.593102 0.000000 0.000000
											CHANNELS 3 Xrotation Yrotation Zrotation
											End Site
											{
												OFFSET 0.150902 2.584198 0.152708
											}
										}
									}
								}
							}
							JOINT newVegas:Right_CapeC
							{
								OFFSET -15.715958 -8.608795 -6.935905
								CHANNELS 3 Xrotation Yrotation Zrotation
								JOINT newVegas:Right_CapeC1
								{
									OFFSET 0.000000 -8.688499 0.000000
									CHANNELS 3 Xrotation Yrotation Zrotation
									End Site
									{
										OFFSET 0.000000 8.688499 0.000000
									}
								}
							}
							JOINT newVegas:Right_Sleeve
							{
								OFFSET -0.267448 -0.649994 0.577675
								CHANNELS 3 Xrotation Yrotation Zrotation
								End Site
								{
									OFFSET 0.000000 15.991302 0.000000
								}
							}
						}
						JOINT newVegas:Right_CapeA
						{
							OFFSET -5.115540 -8.608795 -10.395824
							CHANNELS 3 Xrotation Yrotation Zrotation
							JOINT newVegas:Right_CapeA1
							{
								OFFSET 0.000000 -8.688499 0.000000
								CHANNELS 3 Xrotation Yrotation Zrotation
								End Site
								{
									OFFSET 0.000000 8.688499 0.000000
								}
							}
						}
						JOINT newVegas:Right_CapeB
						{
							OFFSET -26.118187 -8.608795 -7.079266
							CHANNELS 3 Xrotation Yrotation Zrotation
							JOINT newVegas:Right_CapeB1
							{
								OFFSET 0.000000 -8.688499 0.000000
								CHANNELS 3 Xrotation Yrotation Zrotation
								End Site
								{
									OFFSET 0.000000 8.688499 0.000000
								}
							}
						}
					}
				}
				JOINT newVegas:Left_Collar
				{
					OFFSET 18.625099 8.655502 8.828100
					CHANNELS 3 Xrotation Yrotation Zrotation
					JOINT newVegas:Left_Collar1
					{
						OFFSET 14.783401 10.540405 -1.259500
						CHANNELS 3 Xrotation Yrotation Zrotation
						End Site
						{
							OFFSET 0.000000 18.199875 0.000000
						}
					}
				}
				JOINT newVegas:Collar_Back
				{
					OFFSET 0.000000 15.630707 -20.132601
					CHANNELS 3 Xrotation Yrotation Zrotation
					End Site
					{
						OFFSET 0.000000 22.523010 0.000000
					}
				}
				JOINT newVegas:Left_Peck
				{
					OFFSET 17.239599 -5.132599 25.482599
					CHANNELS 3 Xrotation Yrotation Zrotation
					End Site
					{
						OFFSET 0.000000 22.523010 0.000000
					}
				}
				JOINT newVegas:Right_Peck
				{
					OFFSET -17.239599 -5.132202 25.482599
					CHANNELS 3 Xrotation Yrotation Zrotation
					End Site
					{
						OFFSET 0.000000 22.523010 0.000000
					}
				}
				JOINT newVegas:Right_Collar
				{
					OFFSET -18.625099 8.655792 8.828100
					CHANNELS 3 Xrotation Yrotation Zrotation
					JOINT newVegas:Right_Collar1
					{
						OFFSET -14.783401 10.539993 -1.259500
						CHANNELS 3 Xrotation Yrotation Zrotation
						End Site
						{
							OFFSET 0.000000 18.199631 0.000000
						}
					}
				}
			}
		}
		JOINT newVegas:Belly
		{
			OFFSET 0.000000 -6.540398 9.014299
			CHANNELS 3 Xrotation Yrotation Zrotation
			End Site
			{
				OFFSET 0.000000 11.566666 0.000000
			}
		}
	}
	JOINT newVegas:ElvisFacialAnim_Joint
	{
		OFFSET 1.000000 -95.330101 -8.825800
		CHANNELS 3 Xrotation Yrotation Zrotation
		End Site
		{
			OFFSET 0.000000 35.315800 0.000000
		}
	}
}
MOTION
Frames: 4
Frame Time: 0.033333
-14.504375 85.911896 17.478098 -177.616132 -8.130581 -180.582702 0.000000 0.000000 -0.000000 -21.031406 8.516679 11.519216 58.291519 -1.710500 -2.140630 -34.291620 4.712787 -3.722662 0.000000 -0.000000 -0.000000 -0.000003 0.000000 0.000002 -46.721837 10.364104 -4.339841 50.661897 0.788915 1.883605 -10.539969 27.436534 23.203604 -0.000001 0.000002 -0.000000 -0.000000 -0.000001 -0.000001 3.820180 0.247461 -1.008346 7.637942 0.552998 -0.993047 7.637943 0.553000 -0.993046 0.456517 -0.593140 1.004355 0.456512 -0.593137 1.004352 0.000003 0.000000 -0.000000 0.456521 -0.593149 1.004357 0.456651 -0.593127 1.004355 -0.000001 0.000000 0.000000 0.000003 0.000000 -0.000000 0.545692 -9.210737 -19.194621 -70.768840 -63.962427 -60.671908 0.035962 -36.581096 0.084996 -62.896740 -5.907190 -6.858209 -7.461139 -3.018089 10.317957 -0.977757 0.161017 1.827134 0.000001 -0.000002 -0.000005 2.078284 8.253754 0.561280 0.068945 0.766515 -17.024906 0.000001 0.000001 -0.000000 -4.907633 8.206728 -4.261356 -0.089123 -0.372139 -10.727508 0.000001 -0.000001 0.000002 -10.815664 10.172891 -4.692112 -0.116506 -1.670709 -13.363701 0.000001 -0.000004 -0.000001 -3.130813 6.193791 -10.676680 -0.520260 -5.482503 -22.807455 0.000002 -0.000005 -0.000003 -0.000002 0.000000 0.000000 -0.000002 0.000000 0.000000 -0.000003 0.000000 0.000000 0.000003 -0.000002 -0.000000 0.000003 -0.000002 -0.000000 0.000003 -0.000002 -0.000000 0.000001 -0.000002 -0.000001 -1.677453 10.760823 16.800291 -80.027318 67.692495 74.132619 0.038446 36.711533 -0.086813 -27.025793 12.363547 -29.176232 28.820171 6.808705 -14.431051 0.073709 -2.141540 -1.907842 -0.000000 -0.000006 -0.000001 -0.357723 9.014374 10.958992 0.968256 -3.387398 19.578495 -0.000000 -0.000000 -0.000002 -5.074851 6.363526 31.683475 -4.069299 3.010592 98.404762 -0.000000 0.000004 0.000002 -10.851455 5.502604 37.634855 -5.921587 6.645568 87.737905 0.000002 0.000001 0.000002 -2.737741 5.172425 41.030176 -0.669524 11.545283 45.530850 -0.000001 0.000003 0.000003 0.000002 0.000001 -0.000002 0.000002 -0.000001 0.000000 0.000002 0.000001 -0.000000 -0.000000 0.000000 -0.000002 -0.000000 0.000000 -0.000002 -0.000000 0.000000 -0.000002 -0.000000 -0.000000 -0.000002 -0.000000 -0.000001 0.000000 -0.000000 -0.000001 0.000000 -0.000000 -0.000001 0.000000 -0.000000 -0.000001 0.000000 -0.000000 -0.000001 0.000000 -0.000000 -0.000001 0.000000 -0.000000 -0.000001 0.000000 -0.000000 -0.000001 0.000000 0.000000 0.000000 -0.000000 
-14.764898 85.789185 18.421139 -176.846712 -2.071965 -180.979058 0.000000 0.000000 0.000000 -18.561630 11.627638 10.769746 58.071778 -1.429237 -2.112275 -36.744744 7.005208 -2.173034 -0.000000 -0.000000 -0.000000 0.000002 0.000000 0.000002 -46.220754 13.507426 -5.516981 58.672001 1.306430 2.163950 -6.560299 22.849109 17.496995 0.000001 -0.000000 -0.000000 0.000000 0.000000 -0.000000 3.711831 0.467343 -0.871320 7.422887 0.864689 -1.120632 7.422889 0.864691 -1.120632 0.666612 -0.538585 1.063901 0.666602 -0.538585 1.063902 0.000002 -0.000000 0.000000 0.666617 -0.538586 1.063902 0.666685 -0.538583 1.063903 -0.000002 0.000000 -0.000000 0.000002 -0.000000 0.000000 0.308607 -9.302915 -19.379263 -77.652619 -64.974845 -67.795700 0.023444 -31.633540 0.059924 -69.333858 -7.127799 -1.995348 -7.823413 -3.706181 10.394816 -1.009555 0.168634 1.870397 -0.000003 -0.000002 -0.000003 1.740337 8.723963 0.993315 0.068003 0.764264 -16.879045 -0.000002 -0.000001 0.000001 -5.065942 8.479230 -3.795998 -0.085880 -0.354758 -10.511367 -0.000002 0.000000 -0.000002 -11.237055 10.174315 -4.168198 -0.112389 -1.646264 -13.115317 -0.000001 -0.000004 0.000003 -3.134143 5.702771 -10.173424 -0.510052 -5.458644 -22.584464 -0.000001 -0.000003 0.000001 0.000003 0.000001 -0.000000 0.000003 0.000001 -0.000000 0.000002 0.000001 0.000000 -0.000000 0.000000 -0.000000 -0.000001 0.000000 0.000000 -0.000000 0.000000 -0.000000 -0.000002 0.000000 -0.000001 -1.388619 11.341242 16.455538 -87.676864 71.548110 80.525847 0.025652 30.586379 -0.059561 -32.864910 8.653330 -27.799637 28.820188 6.808706 -14.431035 0.073698 -2.141539 -1.907843 0.000003 -0.000002 -0.000001 -0.357831 9.014928 10.945492 0.972353 -3.399982 19.564710 0.000001 0.000000 0.000002 -5.045847 6.466768 31.591787 -4.033897 3.015629 97.826880 -0.000002 0.000001 -0.000002 -10.851452 5.502608 37.634858 -5.859215 6.642809 87.156916 -0.000001 -0.000001 0.000004 -2.757230 5.195175 41.200907 -0.716300 11.590606 45.913211 0.000001 0.000001 0.000001 0.000002 0.000004 0.000002 0.000002 -0.000000 0.000001 0.000002 0.000004 0.000002 0.000002 0.000001 -0.000002 0.000003 0.000001 -0.000001 0.000002 0.000001 -0.000002 0.000002 0.000001 -0.000000 0.000002 0.000000 -0.000000 0.000002 0.000000 -0.000000 0.000002 0.000000 -0.000000 0.000002 0.000000 -0.000000 0.000002 0.000000 -0.000000 0.000002 0.000000 -0.000000 0.000002 0.000000 -0.000000 -0.000000 -0.000000 0.000000 0.000000 0.000000 0.000000 
-14.792192 85.687180 19.098921 -176.292114 3.161734 -181.730502 -0.000000 0.000000 -0.000000 -16.840518 12.643269 9.829236 58.566400 -1.209995 -2.107463 -39.114519 10.534945 -0.770778 -0.000000 -0.000001 0.000000 -0.000006 0.000001 0.000000 -42.619441 15.953908 -7.502765 62.922025 1.529977 2.287668 -3.668627 16.093780 11.548843 0.000000 -0.000001 0.000000 0.000001 0.000001 0.000001 3.541619 0.626961 -0.648793 7.084959 1.121609 -0.998729 7.084955 1.121609 -0.998731 0.922268 -0.481499 1.220915 0.922269 -0.481499 1.220916 0.000000 -0.000000 -0.000000 0.922266 -0.481499 1.220916 0.922268 -0.481498 1.220916 -0.000000 0.000000 -0.000000 0.000000 -0.000000 -0.000000 0.109101 -9.365749 -19.454247 -83.890774 -65.227856 -75.992056 0.016667 -29.063835 0.044499 -65.383898 -10.180957 14.928637 -6.742790 -5.824605 10.833549 -1.308326 0.636071 0.038067 0.000000 0.000002 0.000001 1.939849 9.060427 -2.744357 0.093441 0.820631 -20.604837 0.000002 0.000001 -0.000001 -4.891333 9.124200 -7.408467 -0.191824 -0.802805 -16.140299 -0.000001 0.000000 -0.000000 -11.487997 10.483238 -7.786770 -0.230008 -2.055815 -18.153398 -0.000002 -0.000001 -0.000001 -3.745141 5.095520 -13.312373 -0.725172 -5.914024 -26.913590 0.000001 -0.000003 0.000000 -0.000001 0.000002 -0.000000 -0.000001 0.000002 -0.000000 -0.000002 0.000002 0.000000 0.000001 0.000000 0.000000 0.000001 0.000000 0.000000 0.000001 0.000000 0.000000 -0.000001 -0.000000 0.000000 -1.206074 12.035218 16.510290 -94.602211 75.018474 86.397078 0.019015 25.640539 -0.036744 -38.266883 5.686780 -26.208093 28.820198 6.808722 -14.431025 0.073707 -2.141546 -1.907825 0.000000 -0.000002 -0.000001 -0.357910 9.015378 10.934369 0.975719 -3.410364 19.553337 -0.000001 0.000000 0.000001 -5.026784 6.533955 31.532009 -4.010825 3.018689 97.450605 0.000002 0.000001 -0.000001 -10.851455 5.502611 37.634858 -5.818622 6.640674 86.778605 0.000001 -0.000002 -0.000004 -2.769969 5.210029 41.312082 -0.746873 11.620000 46.162243 -0.000003 -0.000000 -0.000001 0.000001 0.000001 0.000000 0.000001 0.000001 0.000000 0.000001 0.000001 -0.000000 0.000000 0.000000 -0.000000 0.000000 -0.000001 -0.000001 0.000000 0.000000 -0.000000 0.000000 -0.000001 -0.000001 -0.000001 -0.000000 -0.000000 -0.000001 -0.000000 -0.000000 -0.000001 -0.000000 -0.000000 -0.000001 -0.000000 -0.000000 -0.000001 -0.000000 -0.000000 -0.000001 -0.000000 -0.000000 -0.000001 -0.000000 -0.000000 -0.000000 -0.000000 0.000000 -0.000000 0.000000 -0.000000 
-14.482212 85.634674 19.696196 -176.005342 7.318057 -182.407333 -0.000000 0.000000 0.000000 -16.079899 13.083655 9.314798 58.753731 -1.057105 -2.097819 -39.857586 13.513192 0.342103 -0.000000 -0.000001 -0.000000 0.000001 -0.000001 0.000001 -36.733693 17.214375 -10.247393 63.552841 1.412381 2.268550 -3.114325 7.232903 6.718371 -0.000000 -0.000001 0.000000 0.000000 -0.000000 -0.000002 3.354854 0.678460 -0.472265 6.712628 1.223861 -0.819146 6.712628 1.223859 -0.819146 1.190939 -0.441809 1.471675 1.191008 -0.441808 1.471670 -0.000002 0.000000 0.000000 1.190850 -0.441788 1.471671 1.191034 -0.441877 1.471691 0.000001 0.000000 -0.000000 -0.000002 0.000000 -0.000000 -0.070227 -9.449766 -19.624240 -86.780723 -65.524300 -81.513451 0.012899 -29.573841 0.043386 -56.359074 -11.028348 36.285407 -3.971662 -9.535430 12.059855 -1.534409 1.667056 -4.072649 0.000002 0.000006 -0.000000 2.788897 9.187253 -11.016369 0.161918 0.938034 -28.801887 0.000001 -0.000000 0.000002 -4.144768 10.155940 -15.405381 -0.575890 -1.738457 -28.530458 0.000003 -0.000003 -0.000002 -11.480339 11.147563 -15.845071 -0.613474 -2.914563 -29.245446 -0.000001 -0.000007 -0.000000 -5.041072 4.542294 -20.290947 -1.316761 -6.850812 -36.456934 0.000001 -0.000001 -0.000004 -0.000001 0.000002 -0.000000 -0.000001 0.000002 -0.000000 -0.000002 0.000002 0.000000 -0.000002 -0.000001 0.000001 -0.000002 0.000000 0.000000 -0.000002 -0.000001 0.000001 -0.000003 -0.000000 0.000001 -1.042879 12.562095 16.526268 -101.872968 78.138348 92.968731 0.016449 21.870414 -0.022887 -42.696329 2.978215 -24.823773 28.820185 6.808714 -14.431025 0.073684 -2.141542 -1.907850 0.000003 -0.000000 -0.000001 -0.357984 9.015676 10.926825 0.977995 -3.417409 19.545613 -0.000002 -0.000002 -0.000000 -5.019953 6.557947 31.510624 -4.002592 3.019763 97.316221 0.000002 -0.000001 -0.000002 -10.851455 5.502608 37.634855 -5.804115 6.639839 86.643463 0.000001 0.000004 0.000005 -2.774548 5.215331 41.351775 -0.757801 11.630485 46.251196 -0.000001 0.000003 -0.000000 -0.000000 0.000000 -0.000000 0.000001 -0.000002 -0.000000 -0.000000 0.000000 -0.000000 0.000000 0.000000 0.000000 0.000000 0.000000 0.000000 0.000000 0.000000 0.000000 0.000000 -0.000000 0.000000 -0.000000 0.000000 -0.000000 -0.000000 0.000000 -0.000000 -0.000000 0.000000 -0.000000 -0.000000 0.000000 -0.000000 -0.000000 0.000000 -0.000000 -0.000000 0.000000 -0.000000 -0.000000 0.000000 -0.000000 0.000000 0.000000 -0.000000 -0.000000 0.000000 0.000000 
